<?xml version="1.0" standalone="no"?>
<!DOCTYPE svg PUBLIC "-//W3C//DTD SVG 20010904//EN"
 "http://www.w3.org/TR/2001/REC-SVG-20010904/DTD/svg10.dtd">
<svg version="1.0" xmlns="http://www.w3.org/2000/svg"
 width="16.000000pt" height="16.000000pt" viewBox="0 0 16.000000 16.000000"
 preserveAspectRatio="xMidYMid meet">
<metadata>
Created by potrace 1.11, written by Peter Selinger 2001-2013
</metadata>
<g transform="translate(0.000000,16.000000) scale(0.003048,-0.003048)"
fill="#000000" stroke="none">
<path d="M1617 4004 c-1 -1 -38 -4 -82 -7 -44 -4 -91 -9 -105 -12 -14 -3 -37
-7 -51 -10 -119 -22 -287 -93 -419 -178 -156 -100 -307 -260 -402 -424 -52
-89 -116 -249 -133 -330 -29 -137 -33 -180 -30 -323 2 -143 5 -171 21 -240 3
-14 8 -35 10 -48 19 -102 96 -274 175 -393 206 -309 543 -516 904 -556 132
-14 293 -6 420 20 l60 13 -80 53 c-140 94 -311 285 -339 378 -5 14 -18 25 -34
29 -83 18 -112 27 -162 46 -94 37 -168 87 -250 166 -115 113 -174 213 -214
359 -20 74 -27 226 -15 308 39 254 206 476 442 585 65 31 160 58 224 65 28 3
1317 7 1878 5 l60 0 -1 -1000 c0 -901 1 -1000 15 -1000 9 0 32 4 51 10 19 5
51 12 70 15 35 6 284 66 351 85 l35 10 0 940 -1 940 40 0 c22 1 203 1 403 0
l362 -1 0 246 0 245 -502 1 c-277 0 -997 1 -1601 2 -604 1 -1099 1 -1100 1z"/>
<path d="M1565 3373 c-410 -60 -657 -496 -498 -877 141 -337 541 -487 868
-324 356 176 465 628 229 950 -78 106 -214 199 -340 233 -60 16 -204 27 -259
18z m-90 -209 c-25 -43 -45 -81 -45 -84 0 -3 -40 -6 -90 -6 -49 1 -90 2 -90 3
0 11 96 91 140 116 47 28 120 57 127 52 2 -1 -17 -37 -42 -81z m435 33 c53
-30 140 -102 140 -116 0 -4 -38 -7 -85 -6 l-85 1 -27 49 c-14 28 -36 66 -49
87 l-23 36 37 -10 c20 -5 62 -24 92 -41z m-196 -53 c42 -69 42 -68 -61 -69
-51 0 -93 1 -93 3 0 8 36 72 63 111 l30 44 18 -24 c11 -13 30 -42 43 -65z
m-348 -183 c20 -1 21 -3 8 -53 -8 -29 -14 -65 -14 -80 l0 -28 -115 0 -115 0 6
28 c3 15 13 50 22 79 15 51 16 52 56 55 23 2 61 2 86 1 25 -1 54 -2 66 -2z
m430 -5 c10 -4 20 -37 40 -133 l4 -23 -186 0 -186 0 7 33 c24 126 24 126 63
129 47 4 243 -1 258 -6z m352 -41 c7 -21 17 -56 21 -77 l9 -38 -114 0 c-107 0
-114 1 -114 20 0 25 1 19 -16 82 -7 29 -14 54 -14 56 0 1 48 1 107 0 l108 -3
13 -40z m-795 -235 c3 -3 8 -25 11 -50 3 -25 10 -60 15 -77 l10 -33 -104 0
c-119 0 -113 -4 -139 95 -9 34 -11 62 -6 65 11 7 207 7 213 0z m479 -34 c-2
-22 -10 -58 -16 -80 l-12 -41 -146 -3 c-167 -3 -156 -9 -177 92 -9 40 -10 61
-3 65 6 3 89 6 185 6 l174 0 -5 -39z m336 4 c-1 -19 -10 -55 -19 -80 l-17 -45
-106 -3 c-58 -1 -106 -1 -106 0 0 2 7 27 14 56 17 63 16 57 16 85 0 22 3 22
111 22 l110 1 -3 -36z m-714 -293 c14 -29 35 -67 47 -84 19 -30 19 -33 4 -33
-36 0 -143 61 -200 114 l-60 55 92 0 91 0 26 -52z m296 48 c0 -7 -44 -79 -72
-118 l-27 -39 -34 54 c-37 58 -57 94 -57 102 0 3 43 5 95 5 52 0 95 -2 95 -4z
m300 -5 c0 -4 -21 -27 -47 -50 -50 -43 -118 -82 -186 -106 l-39 -14 16 25 c9
13 32 53 52 89 l35 65 85 0 c46 0 84 -4 84 -9z"/>
<path d="M2115 3357 c41 -28 125 -113 161 -162 116 -155 170 -378 140 -575
-30 -194 -151 -392 -310 -504 -109 -78 -240 -130 -350 -140 -26 -3 -49 -6 -51
-8 -2 -2 12 -26 31 -55 39 -58 157 -174 225 -220 159 -109 375 -188 619 -225
86 -13 539 -17 590 -5 14 3 40 6 58 6 l32 1 0 249 0 249 -57 -6 c-76 -8 -285
-8 -348 0 -192 25 -183 15 -116 129 120 202 171 387 175 629 2 102 -2 177 -11
220 -7 36 -15 76 -18 90 -15 78 -45 161 -102 277 l-36 71 -330 0 -331 0 29
-21z"/>
</g>
</svg>
